<svg width="15" height="16" viewBox="0 0 15 16" fill="none" xmlns="http://www.w3.org/2000/svg">
<path d="M7.50107 9.7608L12.8591 15.1306C13.0943 15.3658 13.4133 15.4979 13.7459 15.4979C14.0785 15.4979 14.3975 15.3658 14.6327 15.1306C14.8679 14.8955 15 14.5765 15 14.244C15 13.9114 14.8679 13.5925 14.6327 13.3573L9.26211 8L14.6327 2.64268C14.8679 2.40752 15 2.08859 15 1.75603C15 1.42348 14.8679 1.10454 14.6327 0.869391C14.3975 0.634238 14.0785 0.502131 13.7459 0.502131C13.4133 0.502131 13.0943 0.634238 12.8591 0.869391L7.50107 6.2392L2.14298 0.86939C2.02687 0.752343 1.88874 0.65944 1.73654 0.596041C1.58434 0.532641 1.42109 0.499999 1.25621 0.499999C1.09133 0.499999 0.928086 0.532641 0.775888 0.596041C0.62369 0.65944 0.485554 0.752343 0.369445 0.86939C0.252381 0.985482 0.159463 1.1236 0.096054 1.27578C0.0326452 1.42795 9.05977e-07 1.59118 8.98771e-07 1.75603C8.91565e-07 1.92089 0.0326452 2.08411 0.096054 2.23629C0.159463 2.38847 0.252381 2.52658 0.369445 2.64268L5.74002 8L0.369444 13.3573C0.252381 13.4734 0.159462 13.6115 0.0960535 13.7637C0.0326446 13.9159 3.60113e-07 14.0791 3.52907e-07 14.244C3.457e-07 14.4088 0.0326446 14.572 0.0960535 14.7242C0.159462 14.8764 0.252381 15.0145 0.369444 15.1306C0.485553 15.2477 0.623689 15.3406 0.775888 15.404C0.928086 15.4674 1.09133 15.5 1.25621 15.5C1.42109 15.5 1.58434 15.4674 1.73654 15.404C1.88874 15.3406 2.02687 15.2477 2.14298 15.1306L7.50107 9.7608Z" fill="#4F4F4F"/>
</svg>
