<svg width="197" height="99" viewBox="0 0 197 99" fill="none" xmlns="http://www.w3.org/2000/svg">
<g clip-path="url(#clip0_1_6866)">
<path d="M19.9824 0H196.994C196.994 0 190.255 48.338 157.459 69.2535L180.821 98.5351L115.901 98.7675L106.242 85.521L102.199 98.9999L29.2778 98.7814C29.2778 98.7814 -4.48479 100.497 0.524563 57.4478C2.11498 43.5088 19.9824 0 19.9824 0Z" fill="white"/>
<path d="M30.5178 13.102L54.3561 13.0137C49.459 27.1758 40.7207 51.7491 40.1547 54.7796C39.0495 60.7242 39.3684 64.3263 41.5519 66.9292C43.9106 69.7179 47.635 70.4662 50.5867 70.5963C56.3778 70.7915 65.3632 71.1123 71.2037 70.6475C71.2037 70.6475 71.5496 70.9868 73.0007 67.3939L85.3557 30.4432H136.572C136.572 30.4432 134.775 40.6686 124.442 41.5982C118.141 42.1587 111.811 42.3046 105.492 42.0351L91.6454 84.8235L33.6897 85.2883C29.7541 85.0094 23.5137 83.8661 19.2591 79.0369C14.7664 73.9242 15.0944 65.4465 15.5841 61.3749C15.7369 60.1014 18.2573 49.0999 18.6392 47.8961L30.5178 13.102Z" fill="#D9211C"/>
<path d="M59.7464 13.2471L45.9134 55.3011C45.9134 55.3011 43.2942 63.8207 47.9531 64.7782C53.5151 65.9216 59.4454 65.8286 63.5427 65.7078C66.0092 65.6427 67.5862 65.5172 67.5862 65.5172L69.4461 59.9397L80.1028 27.8693C81.5135 23.7234 81.0642 24.653 84.8291 24.4206H146.006C145.809 25.8741 145.472 27.3035 145 28.6873C141.221 40.2559 130.457 47.8181 118.655 47.4788L108.941 47.4276L104.673 63.4628L121.746 84.3783H152.745L134.1 60.4417H135.448C135.448 60.4417 164.875 60.2093 178.353 13.2657L59.7464 13.2471Z" fill="#1D1D1B"/>
</g>
<defs>
<clipPath id="clip0_1_6866">
<rect width="197" height="99" fill="white"/>
</clipPath>
</defs>
</svg>
