<svg width="30" height="30" viewBox="0 0 30 30" fill="none" xmlns="http://www.w3.org/2000/svg">
<path fill-rule="evenodd" clip-rule="evenodd" d="M15 30C6.71573 30 0 23.2843 0 15C0 6.71573 6.71573 0 15 0C23.2843 0 30 6.71573 30 15C30 23.2843 23.2843 30 15 30ZM15.4944 23.3453C20.4122 23.3433 24.4119 19.3427 24.4138 14.4259C24.4148 12.0427 23.4879 9.80176 21.8039 8.11588C20.1199 6.42992 17.8804 5.50103 15.4943 5.5C10.578 5.5 6.57674 9.50106 6.57478 14.4189C6.57411 15.9909 6.98483 17.5253 7.76538 18.878L6.5 23.5L11.2283 22.2597C12.5311 22.9703 13.9979 23.3448 15.4907 23.3453H15.4944Z" fill="#4F4F4F" fill-opacity="0.5"/>
<path fill-rule="evenodd" clip-rule="evenodd" d="M11.4472 20.6449L8.64138 21.3809L9.39031 18.6452L9.21404 18.3647C8.47194 17.1844 8.07999 15.8202 8.08057 14.4194C8.08219 10.3319 11.4079 7.00647 15.4972 7.00647C17.4773 7.00716 19.3387 7.77925 20.7384 9.18056C22.1381 10.5819 22.9084 12.4445 22.9077 14.4254C22.906 18.5132 19.5804 21.8389 15.4943 21.8389H15.4912C14.161 21.8384 12.8562 21.481 11.718 20.8055L11.4472 20.6449ZM19.9878 16.5469C19.9321 16.4539 19.7836 16.3982 19.5607 16.2866C19.3378 16.175 18.2421 15.6359 18.0378 15.5615C17.8335 15.4871 17.6849 15.45 17.5364 15.673C17.3878 15.8961 16.9607 16.3982 16.8307 16.5469C16.7007 16.6956 16.5707 16.7143 16.3479 16.6027C16.125 16.4911 15.4069 16.2558 14.5556 15.4965C13.8931 14.9055 13.4458 14.1757 13.3158 13.9526C13.1858 13.7295 13.3019 13.6089 13.4135 13.4978C13.5138 13.3979 13.6364 13.2374 13.7478 13.1073C13.8592 12.9772 13.8964 12.8842 13.9707 12.7355C14.0449 12.5867 14.0078 12.4566 13.9521 12.3451C13.8964 12.2335 13.4507 11.1365 13.2649 10.6903C13.084 10.2557 12.9003 10.3146 12.7635 10.3077C12.6337 10.3012 12.4849 10.2998 12.3364 10.2998C12.1878 10.2998 11.9463 10.3556 11.742 10.5787C11.5378 10.8018 10.962 11.341 10.962 12.4379C10.962 13.5349 11.7606 14.5947 11.8721 14.7434C11.9835 14.8922 13.4436 17.1433 15.6793 18.1086C16.211 18.3383 16.6261 18.4754 16.9498 18.5781C17.4837 18.7478 17.9696 18.7238 18.3535 18.6664C18.7817 18.6024 19.6721 18.1273 19.8579 17.6067C20.0435 17.0861 20.0435 16.6398 19.9878 16.5469Z" fill="#4F4F4F" fill-opacity="0.5"/>
</svg>
